<?xml version="1.0" encoding="utf-8"?>
<!-- Generator: Adobe Illustrator 25.2.0, SVG Export Plug-In . SVG Version: 6.00 Build 0)  -->
<svg version="1.1" xmlns="http://www.w3.org/2000/svg" xmlns:xlink="http://www.w3.org/1999/xlink" x="0px" y="0px"
	 viewBox="0 0 378 541" style="enable-background:new 0 0 378 541;" xml:space="preserve">
<style type="text/css">
	.st0{fill:#677077;}
	.st1{fill:#B5B5B5;}
	.st2{display:none;}
	.st3{display:inline;}
	.st4{fill:#B70000;}
	.st5{fill:#FFFFFF;}
	.st6{fill:#FF6D00;}
	.st7{opacity:0.53;fill:#CDF9F4;}
</style>
<g id="Layer_1">
	<g>
		<path class="st0" d="M185.5,495L185.5,495C93.37,495,18,419.63,18,327.5V151.94C18,81.02,76.02,23,146.94,23h77.13
			C294.98,23,353,81.02,353,151.94V327.5C353,419.63,277.63,495,185.5,495z"/>
	</g>
	<g>
		<path class="st1" d="M257.98,324H111.02C79.11,324,53,297.89,53,265.98V137.02C53,105.11,79.11,79,111.02,79h146.97
			c31.91,0,58.02,26.11,58.02,58.02v128.97C316,297.89,289.89,324,257.98,324z"/>
	</g>
	<g>
		<path d="M186.5,437h-10c-17.32,0-31.5-14.17-31.5-31.5v0c0-17.32,14.17-31.5,31.5-31.5h10c17.32,0,31.5,14.17,31.5,31.5v0
			C218,422.83,203.83,437,186.5,437z"/>
	</g>
</g>
<g id="Layer_2" class="st2">
	<g class="st3">
		<path class="st4" d="M628.83,454H105c-6.6,0-12-5.4-12-12V46c0-6.6,5.4-12,12-12h523.83c6.6,0,12,5.4,12,12v396
			C640.83,448.6,635.43,454,628.83,454z"/>
		<path class="st5" d="M396.42,402.54h-88.89c-6.6,0-12-5.4-12-12V105.76c0-6.6,5.4-12,12-12h88.89c6.6,0,12,5.4,12,12v284.77
			C408.42,397.14,403.02,402.54,396.42,402.54z"/>
		<path class="st5" d="M508.02,202.05v88.89c0,6.6-5.4,12-12,12H211.25c-6.6,0-12-5.4-12-12v-88.89c0-6.6,5.4-12,12-12h284.77
			C502.62,190.05,508.02,195.45,508.02,202.05z"/>
	</g>
</g>
<g id="Layer_3" class="st2">
	<g class="st3">
		<polygon class="st6" points="441,434 298,436 265,95 468,95 		"/>
		<polygon class="st7" points="452,451 280,451 241,20 484,20 		"/>
	</g>
</g>
</svg>
