<svg id="bkg" xmlns="http://www.w3.org/2000/svg" viewBox="0 0 718.03 493"><defs><style>.cls-1,.cls-2,.cls-3{fill:none;}.cls-1,.cls-2{stroke:#000;stroke-miterlimit:10;}.cls-1{stroke-width:6px;}.cls-2{stroke-width:4px;}</style></defs><polygon class="cls-1" points="265 363 3 362 3 343 283 346 265 363"/><polygon class="cls-1" points="235 377 7 379 6 364 239 363 235 377"/><polygon class="cls-1" points="223 489 207 489 201 378 217 378 223 489"/><polygon class="cls-2" points="181 439 171 439 168 377 178 377 181 439"/><polygon class="cls-1" points="24.37 490 40.37 490 46.37 379 30.37 379 24.37 490"/><polygon class="cls-2" points="66.37 440 76.37 440 79.37 378 69.37 378 66.37 440"/><rect class="cls-1" x="452" y="243" width="233" height="101"/><line class="cls-1" x1="576" y1="242" x2="576" y2="346"/><rect class="cls-1" x="445" y="228" width="250" height="15"/><ellipse class="cls-1" cx="544" cy="288.5" rx="7" ry="6.5"/><ellipse class="cls-1" cx="605" cy="288.5" rx="7" ry="6.5"/><rect class="cls-1" x="178" y="164" width="143" height="179"/><line class="cls-1" x1="264" y1="159" x2="263" y2="345"/><ellipse class="cls-1" cx="232" cy="266.5" rx="7" ry="6.5"/><ellipse class="cls-1" cx="293" cy="266.5" rx="7" ry="6.5"/><rect class="cls-1" x="145" y="118" width="310" height="14"/><rect class="cls-1" x="208" y="24" width="200" height="10"/><rect class="cls-1" x="7" y="77" width="101" height="267"/><rect class="cls-1" x="20" y="96.23" width="74.64" height="58.77"/><rect class="cls-1" x="19.82" y="172.34" width="74.64" height="58.77"/><rect class="cls-1" x="21.82" y="246.34" width="74.64" height="72.66"/><rect class="cls-1" x="498" y="25" width="160" height="142"/><line class="cls-1" x1="278" y1="350" x2="718" y2="345"/><ellipse class="cls-1" cx="609" cy="63.5" rx="41" ry="38.5"/><path class="cls-1" d="M826,305H800c-6.6,0-2-7.4-2-5L788,136c0-15.6,5.4-21,12-21h26a12,12,0,0,1,12,12V293C838,299.6,832,300,826,305Z" transform="translate(-340 -108)"/><rect class="cls-1" x="656" y="9" width="50" height="190" rx="12"/><rect x="440" width="273" height="23"/><line class="cls-3" x1="450" y1="25" x2="456" y2="174"/><path class="cls-2" d="M790,128" transform="translate(-340 -108)"/><path class="cls-2" d="M835,303" transform="translate(-340 -108)"/><line class="cls-2" x1="457" y1="195" x2="465" y2="17"/><line class="cls-2" x1="486.12" y1="196.31" x2="480.59" y2="21.59"/><line class="cls-2" x1="700" y1="196" x2="680.76" y2="18.36"/><rect class="cls-1" x="602" y="194" width="24" height="25"/><rect class="cls-1" x="504" y="197" width="23" height="21"/><rect class="cls-1" x="551" y="178" width="19" height="46"/><rect class="cls-1" x="538" y="179" width="33" height="20"/></svg>