<svg id="Layer_2" data-name="Layer 2" xmlns="http://www.w3.org/2000/svg" viewBox="0 0 227.8 398.27"><defs><style>.cls-1{fill:#003847;}.cls-2{fill:none;stroke:#000;stroke-miterlimit:10;stroke-width:12px;}</style></defs><path d="M130.52,314.27a82.09,82.09,0,0,1,2,16.22c.09,2.71.12,5.41,0,8.11s-.18,5.38-.39,8.1l-.29,3.91-4.25-.55c-2.35-.31-4.68-.72-7-1.21s-4.61-1.08-6.88-1.81a64,64,0,0,1-6.75-2.51A40.51,40.51,0,0,1,100.5,341a39.76,39.76,0,0,1,7.39-.9,63.91,63.91,0,0,1,7.2.13c2.37.15,4.72.46,7.06.83s4.65.85,6.95,1.42l-4.55,3.36c.38-2.59.77-5.24,1.2-7.86s.88-5.25,1.36-7.88C128.11,324.84,129.14,319.61,130.52,314.27Z" transform="translate(-21 -13.23)"/><path d="M159.5,314c.77,2.67,1.38,5.31,1.94,7.95s1.08,5.26,1.52,7.9.86,5.26,1.23,7.9l.52,3.95.46,3.94-4.37-3.57c2.27-.3,4.54-.56,6.82-.7s4.58-.21,6.88-.19a68.1,68.1,0,0,1,6.95.45A40.78,40.78,0,0,1,188.5,343a41,41,0,0,1-6.58,2.87,68.63,68.63,0,0,1-6.69,1.95c-2.24.52-4.49,1-6.75,1.31s-4.54.6-6.81.8l-4.16.37-.21-3.94-.22-4.05-.1-4c0-2.7,0-5.39.18-8.09s.38-5.41.74-8.11A58.3,58.3,0,0,1,159.5,314Z" transform="translate(-21 -13.23)"/><path d="M174,316.5c.11-.95.24-1.9.38-2.85s.25-1.9.41-2.84l.14-.83.88.35a135.58,135.58,0,0,1,15.52,7.34,81.32,81.32,0,0,1,14.38,9.79,39.28,39.28,0,0,1,6.15,6.62,19.76,19.76,0,0,1,3.76,9,14.67,14.67,0,0,1-.37,5.23,16.21,16.21,0,0,1-2.09,4.72,26.91,26.91,0,0,1-6.69,6.84l0,0-.18.11-7.2,4.53L191.82,369l-14.47,8.9-.19.11-.27.12a89.31,89.31,0,0,1-20.5,6.12,91,91,0,0,1-10.66,1.18c-.9,0-1.78.08-2.7.09s-1.86,0-2.68,0l-5.14-.15q-20.55-.58-41.09-1.52c-3.4-.14-6.91-.35-10.1-.4a62.77,62.77,0,0,0-9.77.68,70.52,70.52,0,0,0-9.62,2.1,63.44,63.44,0,0,0-9.28,3.43,76.4,76.4,0,0,0-8.75,4.76l-2.1,1.38-2.12,1.45-4.24,2.91C32.46,404,26.77,407.78,21,411.5c5.12-4.58,10.32-9.05,15.53-13.5l3.93-3.32,2-1.66,2-1.65a65.9,65.9,0,0,1,8.82-5.82,67.89,67.89,0,0,1,19.93-7.35,69.09,69.09,0,0,1,10.64-1.34c3.66-.17,7-.07,10.43-.07q20.52.12,41,.59l5.13.11c.88,0,1.64,0,2.44,0l2.44-.08a85.75,85.75,0,0,0,9.74-1,87.66,87.66,0,0,0,18.85-5.31l-.45.23,14.76-8.41,7.39-4.2,7.43-4.13-.21.14a21,21,0,0,0,5.42-5,9.4,9.4,0,0,0,1.89-6.16,14.61,14.61,0,0,0-2.4-6.72,35,35,0,0,0-5-6.17,88.52,88.52,0,0,0-13-10.37,166.44,166.44,0,0,0-14.54-8.62l1-.48c-.34.89-.72,1.78-1.09,2.66S174.39,315.62,174,316.5Z" transform="translate(-21 -13.23)"/><line class="cls-1" x1="82" y1="223.27" x2="122" y2="170.27"/><path class="cls-1" d="M164.62,131.8a50.08,50.08,0,0,0,34,5.6c26.3-4.84,54.26-33.58,49.72-58.21s-43.12-46.68-69.42-41.84c-21.6,4-35.14,28.14-36.77,50.3-10.78-3.24-24.28-4.87-35.19-2.05,1.59-12.41-2.14-27-11.31-39.94C79.58,23.1,56.19,5.11,39.45,17S18.9,75.59,34.94,98.16c12.43,17.49,31.23,21,46.85,16.09C75,130.17,65.56,149.48,63.67,163.54,58.5,202,59.5,221,63.22,266.79,64,276,84,258.69,102.44,235.65l-.06.21L128.5,202l-12,18-18,37c-2.91,12.36-3.75,14.3-4,25-1.12,48.58,45.76,46.48,58,47,41.55,1.77,60.37-45.7,44-98.5" transform="translate(-21 -13.23)"/><path d="M158.5,223a133.9,133.9,0,0,1-.46,20.26q-.91,10-2.7,19.86l-.93,4.92-.52,2.45-.06.3,0,.16,0,.07v0l0-.19a3.2,3.2,0,0,0-.27-1.7,3.25,3.25,0,0,0-1.11-1.35,3.19,3.19,0,0,0-1.52-.56,3.27,3.27,0,0,0-1.74.3,3.18,3.18,0,0,0-1.24,1.07l.19-.25c2-2.65,4.12-5.26,6.29-7.82A132.47,132.47,0,0,1,168.5,246a131.12,131.12,0,0,1-8.95,18.18c-1.67,2.91-3.43,5.75-5.23,8.57l-.17.26a4.46,4.46,0,0,1-1.71,1.46,4.44,4.44,0,0,1-5.95-2.19,4.49,4.49,0,0,1-.36-2.32l.13-.85.37-2.47.84-4.94c1.19-6.56,2.64-13.08,4.4-19.55A132.39,132.39,0,0,1,158.5,223Z" transform="translate(-21 -13.23)"/><path d="M129.31,233a86.69,86.69,0,0,1-2.07,16.09A146.65,146.65,0,0,1,123,264.48l-1.3,3.75-.18.47-.19.51a4.07,4.07,0,0,1-.35.65,3.81,3.81,0,0,1-.5.64,4.26,4.26,0,0,1-1.24.89,3.87,3.87,0,0,1-1.21.37,4,4,0,0,1-1,0,4.72,4.72,0,0,1-1.51-.35,4.64,4.64,0,0,1-2.28-2.08,4.7,4.7,0,0,1-.45-1.31l0-.24-.09-.5-.15-1c-.38-2.63-.71-5.27-.94-7.93a85.24,85.24,0,0,1-.08-16.22,85.55,85.55,0,0,1,6.25,15c.82,2.54,1.54,5.1,2.21,7.67.09.32.17.64.25,1l.11.48.06.24,0,.06v-.06l-.05-.18a4.32,4.32,0,0,0-.26-.66,3.15,3.15,0,0,0-1.55-1.43,3.06,3.06,0,0,0-1-.24,2.56,2.56,0,0,0-.72,0,3.15,3.15,0,0,0-1,.3,3.42,3.42,0,0,0-1,.75,3.06,3.06,0,0,0-.42.53,3.29,3.29,0,0,0-.3.55c0,.07-.08.22-.09.25v0l0-.06,0-.12.14-.48,1.22-3.79a144.34,144.34,0,0,1,5.86-14.82A85.86,85.86,0,0,1,129.31,233Z" transform="translate(-21 -13.23)"/><line class="cls-2" x1="84.5" y1="162.77" x2="130.5" y2="162.77"/><line class="cls-2" x1="27.63" y1="143.07" x2="64.16" y2="149.06"/><line class="cls-2" x1="83.01" y1="152.89" x2="135.51" y2="152.89"/><line class="cls-2" x1="31.6" y1="150.97" x2="63.1" y2="157.71"/></svg>