<?xml version="1.0" encoding="utf-8"?>
<!-- Generator: Adobe Illustrator 25.2.0, SVG Export Plug-In . SVG Version: 6.00 Build 0)  -->
<svg version="1.1" xmlns="http://www.w3.org/2000/svg" xmlns:xlink="http://www.w3.org/1999/xlink" x="0px" y="0px"
	 viewBox="0 0 289.83 513.54" style="enable-background:new 0 0 289.83 513.54;" xml:space="preserve">
<style type="text/css">
	.st0{display:none;}
	.st1{display:inline;fill:#2E6034;}
	.st2{display:inline;opacity:0.74;fill:#BDD0D6;}
	.st3{opacity:0.43;fill:none;stroke:#E6EEEF;stroke-width:8;stroke-miterlimit:10;}
</style>
<g id="leaf" class="st0">
	<path class="st1" d="M120.91,105.95c0.5-5.65,2.4-11.71,8.31-14.74c4-2.05,9.13-2.33,14-2.77c16.82-1.54,32.98-5.82,47.19-12.48
		c-8.32,11.61-18.77,22.22-30.97,31.42c-3.74,2.83-7.83,5.6-12.94,6.66c-8.94,1.87-18.59-1.85-26.96-5.7
		c-2.3,0.65-4.69,1.14-7.13,1.47c2.96,0.52,6.09-1,6.69-3.26"/>
</g>
<g id="water" class="st0">
	<polygon class="st2" points="190.73,488 83.12,488 39.37,98.28 246.63,98.28 	"/>
</g>
<g id="glass">
	<path class="st3" d="M197.67,501.02H76.28c-3.31,0-6.1-2.49-6.47-5.78L17.28,27.15c-0.43-3.86,2.59-7.23,6.47-7.23h241.06
		c3.96,0,7,3.51,6.44,7.43l-67.13,468.09C203.66,498.64,200.91,501.02,197.67,501.02z"/>
</g>
</svg>
